<svg width="17" height="16" viewBox="0 0 17 16" fill="none" xmlns="http://www.w3.org/2000/svg">
<path d="M11.7283 1.36109C12.6424 1.36372 13.5183 1.7143 14.1646 2.33629C14.811 2.95827 15.1753 3.80111 15.1781 4.68072V11.3193C15.1753 12.1989 14.811 13.0417 14.1646 13.6637C13.5183 14.2857 12.6424 14.6363 11.7283 14.6389H4.82947C3.91537 14.6363 3.03949 14.2857 2.39312 13.6637C1.74675 13.0417 1.38242 12.1989 1.37969 11.3193V4.68072C1.38242 3.80111 1.74675 2.95827 2.39312 2.33629C3.03949 1.7143 3.91537 1.36372 4.82947 1.36109H11.7283ZM11.7283 0.0334473H4.82947C2.1732 0.0334473 0 2.12467 0 4.68072V11.3193C0 13.8753 2.1732 15.9666 4.82947 15.9666H11.7283C14.3845 15.9666 16.5578 13.8753 16.5578 11.3193V4.68072C16.5578 2.12467 14.3845 0.0334473 11.7283 0.0334473Z" fill="#1C1F35"/>
<path d="M12.7634 4.68134C12.5587 4.68134 12.3586 4.62293 12.1884 4.51351C12.0182 4.40409 11.8856 4.24856 11.8073 4.0666C11.7289 3.88464 11.7085 3.68441 11.7484 3.49124C11.7883 3.29807 11.8869 3.12063 12.0316 2.98137C12.1763 2.8421 12.3607 2.74726 12.5615 2.70883C12.7622 2.67041 12.9703 2.69013 13.1594 2.7655C13.3485 2.84087 13.5101 2.96851 13.6238 3.13227C13.7375 3.29603 13.7982 3.48856 13.7982 3.68552C13.7985 3.81637 13.7719 3.94599 13.72 4.06693C13.6681 4.18788 13.5919 4.29777 13.4958 4.3903C13.3996 4.48282 13.2854 4.55616 13.1597 4.60611C13.034 4.65605 12.8993 4.68162 12.7634 4.68134ZM8.27909 5.34498C8.82491 5.34498 9.35848 5.50073 9.81232 5.79254C10.2662 6.08434 10.6199 6.4991 10.8288 6.98435C11.0376 7.4696 11.0923 8.00356 10.9858 8.51871C10.8793 9.03385 10.6165 9.50704 10.2305 9.87844C9.84457 10.2498 9.35283 10.5028 8.81749 10.6052C8.28215 10.7077 7.72726 10.6551 7.22298 10.4541C6.7187 10.2531 6.28769 9.91273 5.98444 9.47601C5.6812 9.03929 5.51934 8.52585 5.51934 8.00062C5.52012 7.29653 5.81113 6.6215 6.32852 6.12363C6.8459 5.62576 7.5474 5.34573 8.27909 5.34498ZM8.27909 4.01734C7.46038 4.01734 6.66007 4.25095 5.97934 4.68864C5.29861 5.12633 4.76805 5.74843 4.45475 6.47628C4.14144 7.20413 4.05947 8.00504 4.21919 8.77772C4.37891 9.5504 4.77315 10.2601 5.35206 10.8172C5.93097 11.3743 6.66855 11.7537 7.47152 11.9074C8.2745 12.0611 9.1068 11.9822 9.86318 11.6807C10.6196 11.3792 11.2661 10.8687 11.7209 10.2136C12.1758 9.55856 12.4185 8.78844 12.4185 8.00062C12.4185 6.94419 11.9824 5.93102 11.2061 5.18401C10.4298 4.437 9.37694 4.01734 8.27909 4.01734Z" fill="#1C1F35"/>
</svg>
