<svg width="17" height="18" viewBox="0 0 17 18" fill="none" xmlns="http://www.w3.org/2000/svg">
<path d="M15.5253 0.910156H2.02208C1.28425 0.910156 0.639587 1.44105 0.639587 2.17022V15.7034C0.639587 16.4365 1.28425 17.0898 2.02208 17.0898H15.5213C16.2631 17.0898 16.8193 16.4322 16.8193 15.7034V2.17022C16.8236 1.44105 16.2631 0.910156 15.5253 0.910156ZM5.65493 14.3967H3.33704V7.1899H5.65493V14.3967ZM4.57616 6.09416H4.55955C3.81774 6.09416 3.3374 5.54195 3.3374 4.8507C3.3374 4.14682 3.83038 3.60761 4.5888 3.60761C5.34723 3.60761 5.81131 4.14284 5.82792 4.8507C5.82756 5.54195 5.34723 6.09416 4.57616 6.09416ZM14.1261 14.3967H11.8083V10.4562C11.8083 9.51211 11.4709 8.86709 10.6323 8.86709C9.99166 8.86709 9.61245 9.30048 9.44379 9.72267C9.38059 9.87435 9.36361 10.0809 9.36361 10.2918V14.3967H7.04573V7.1899H9.36361V8.19282C9.70093 7.71249 10.2279 7.02124 11.454 7.02124C12.9755 7.02124 14.1265 8.02416 14.1265 10.1864L14.1261 14.3967Z" fill="#1C1F35"/>
</svg>
