<svg width="17" height="14" viewBox="0 0 17 14" fill="none" xmlns="http://www.w3.org/2000/svg">
<path d="M16.6396 2.12868C16.0405 2.38883 15.4065 2.56022 14.7579 2.63743C15.4396 2.23854 15.9522 1.60482 16.1997 0.85514C15.5552 1.23175 14.8512 1.49599 14.118 1.63656C13.8092 1.31319 13.4379 1.05595 13.0265 0.88046C12.6152 0.704971 12.1724 0.614902 11.7251 0.615728C9.91428 0.615728 8.44883 2.05885 8.44883 3.83782C8.44755 4.08527 8.47592 4.33198 8.53335 4.57268C7.23484 4.51185 5.96333 4.18084 4.80017 3.60082C3.63701 3.0208 2.60781 2.20455 1.77843 1.20428C1.48746 1.69445 1.33358 2.25372 1.33287 2.82364C1.33287 3.9409 1.91619 4.92847 2.79699 5.50705C2.27514 5.49468 1.76398 5.35666 1.30691 5.10471V5.14461C1.30691 6.70744 2.43828 8.00758 3.93568 8.30352C3.65409 8.37853 3.36393 8.41654 3.07251 8.41658C2.86573 8.41694 2.65942 8.39689 2.45658 8.35672C2.87286 9.63692 4.08442 10.568 5.51959 10.5946C4.35341 11.4927 2.92165 11.9781 1.44933 11.9745C1.18799 11.9741 0.926896 11.9586 0.667358 11.928C2.16515 12.8837 3.90621 13.3892 5.6833 13.3844C11.7181 13.3844 15.0151 8.47311 15.0151 4.21356C15.0151 4.07391 15.0114 3.93425 15.0048 3.79792C15.6447 3.34305 16.1983 2.77779 16.6396 2.12868Z" fill="#1C1F35"/>
</svg>
