<svg width="74" height="56" viewBox="0 0 74 56" fill="none" xmlns="http://www.w3.org/2000/svg">
<path d="M17.4375 43.3777H53.0681" stroke="#1C1F35" stroke-width="2" stroke-linecap="round" stroke-linejoin="round"/>
<path d="M34.3535 28.5188L49.7721 19.2362" stroke="#1C1F35" stroke-width="2" stroke-linecap="round" stroke-linejoin="round"/>
<path d="M9.87988 25.9482L15.855 31.9234" stroke="#1C1F35" stroke-width="2" stroke-linecap="round" stroke-linejoin="round"/>
<path d="M1.24219 23.7891L7.21731 29.7642" stroke="#1C1F35" stroke-width="2" stroke-linecap="round" stroke-linejoin="round"/>
<path d="M15.9119 23.5191L25.3064 32.5308C26.5591 33.7338 28.1573 34.4905 29.8634 34.6882C31.5694 34.886 33.2923 34.5144 34.7757 33.6286L72.5032 11.1631L67.8682 5.34255C66.6625 3.83397 64.9699 2.81692 63.0962 2.47514C61.2225 2.13336 59.2912 2.48941 57.6514 3.47895L46.5873 10.142L31.6358 5.03621L27.5242 6.84876C27.2166 6.98381 26.9471 7.19603 26.7406 7.46585C26.5341 7.73566 26.3973 8.05439 26.3427 8.39265C26.288 8.73092 26.3174 9.07782 26.4281 9.40138C26.5388 9.72495 26.7272 10.0148 26.976 10.2441L34.6261 17.2901L27.6488 21.3747L20.6714 18.3112L16.485 20.1493C16.1805 20.2833 15.9133 20.4931 15.7078 20.7595C15.5022 21.0259 15.3648 21.3407 15.3079 21.6752C15.251 22.0098 15.2764 22.3536 15.3819 22.6756C15.4874 22.9975 15.6695 23.2874 15.9119 23.5191V23.5191Z" stroke="#1C1F35" stroke-width="2" stroke-linecap="round" stroke-linejoin="round"/>
<path d="M68.724 6.66756C62.7342 11.3721 56.8215 11.9633 52.5283 6.66756L55.9016 4.47491C60.0936 1.75015 65.6757 2.7047 68.724 6.66756Z" fill="#FFD550" stroke="#1C1F35" stroke-width="2"/>
</svg>
