<svg width="26" height="30" viewBox="0 0 26 30" fill="none" xmlns="http://www.w3.org/2000/svg">
<path d="M25 21.4598V8.54017C24.999 8.35355 24.9512 8.1705 24.8612 8.00947C24.7712 7.84843 24.6423 7.71511 24.4875 7.62296L13.4875 1.13693C13.3393 1.04722 13.1711 1 13 1C12.8289 1 12.6607 1.04722 12.5125 1.13693L1.5125 7.62296C1.35769 7.71511 1.22879 7.84843 1.13882 8.00947C1.04884 8.1705 1.00096 8.35355 1 8.54017V21.4598C1.00096 21.6464 1.04884 21.8295 1.13882 21.9905C1.22879 22.1516 1.35769 22.2849 1.5125 22.377L12.5125 28.8631C12.6607 28.9528 12.8289 29 13 29C13.1711 29 13.3393 28.9528 13.4875 28.8631L24.4875 22.377C24.6423 22.2849 24.7712 22.1516 24.8612 21.9905C24.9512 21.8295 24.999 21.6464 25 21.4598V21.4598Z" stroke="#141414" stroke-width="1.5" stroke-linecap="round" stroke-linejoin="round"/>
<path d="M19 18V11.0995L7 4" stroke="#141414" stroke-width="1.5" stroke-linecap="round" stroke-linejoin="round"/>
<path d="M25 8L13.1138 15L1 8" stroke="#141414" stroke-width="1.5" stroke-linecap="round" stroke-linejoin="round"/>
<path d="M13 15V29" stroke="#141414" stroke-width="1.5" stroke-linecap="round" stroke-linejoin="round"/>
</svg>
